HIERARCHY
ROOT Hips
{
  OFFSET -163.823 86.7702 109.061
  CHANNELS 6 Xposition Yposition Zposition Zrotation Xrotation Yrotation
  JOINT RightUpLeg
  {
    OFFSET -8.9458 -8.66707 0.101652
    CHANNELS 3 Zrotation Xrotation Yrotation
    JOINT RightLeg
    {
      OFFSET 0 -44.4227 1.3727
      CHANNELS 3 Zrotation Xrotation Yrotation
      JOINT RightFoot
      {
        OFFSET 0.253549 -42.0924 -1.46059
        CHANNELS 3 Zrotation Xrotation Yrotation
        JOINT RightToes
        {
          OFFSET 0.04 -4.41509 8.4991
          CHANNELS 3 Zrotation Xrotation Yrotation
          End Site
          {
            OFFSET -0.08 -0.137448 9.77979
          }
        }
      }
    }
  }
  JOINT Spine
  {
    OFFSET 0 11.8905 0
    CHANNELS 3 Zrotation Xrotation Yrotation
    JOINT Spine1
    {
      OFFSET 0 25.6574 0.127663
      CHANNELS 3 Zrotation Xrotation Yrotation
      JOINT HEad
      {
        OFFSET 0 8.73416 0.011341
        CHANNELS 3 Zrotation Xrotation Yrotation
        End Site
        {
          OFFSET -0.29 12.7742 2.51395
        }
      }
      JOINT LeftShoulder1
      {
        OFFSET 8.99 -0.362252 -0.22
        CHANNELS 3 Zrotation Xrotation Yrotation
        JOINT LeftArm
        {
          OFFSET 10.2827 -0.00338 0.322123
          CHANNELS 3 Zrotation Xrotation Yrotation
          JOINT LeftForeArm
          {
            OFFSET 32.7669 0.099144 -1.42434
            CHANNELS 3 Zrotation Xrotation Yrotation
            JOINT LeftHand
            {
              OFFSET 27.5643 0.085362 1.02216
              CHANNELS 3 Zrotation Xrotation Yrotation
              End Site
              {
                OFFSET 16.7443 -0.6 1.50291
              }
            }
          }
        }
      }
      JOINT RightShoulder
      {
        OFFSET -8.99 -0.362252 -0.22
        CHANNELS 3 Zrotation Xrotation Yrotation
        JOINT RightArm
        {
          OFFSET -10.2827 -0.00338 0.322123
          CHANNELS 3 Zrotation Xrotation Yrotation
          JOINT RightForeArm
          {
            OFFSET -32.8971 0.099144 -1.42434
            CHANNELS 3 Zrotation Xrotation Yrotation
            JOINT RightHand
            {
              OFFSET -27.4921 0.085362 1.02216
              CHANNELS 3 Zrotation Xrotation Yrotation
              End Site
              {
                OFFSET -16.6312 -0.6 1.50291
              }
            }
          }
        }
      }
    }
  }
  JOINT LeftUpLeg
  {
    OFFSET 8.9458 -8.66707 0.101652
    CHANNELS 3 Zrotation Xrotation Yrotation
    JOINT LeftLeg
    {
      OFFSET 0 -44.4227 1.3727
      CHANNELS 3 Zrotation Xrotation Yrotation
      JOINT LeftFoot
      {
        OFFSET -0.253549 -42.0924 -1.46059
        CHANNELS 3 Zrotation Xrotation Yrotation
        JOINT LeftToes
        {
          OFFSET -0.04 -4.41509 8.4991
          CHANNELS 3 Zrotation Xrotation Yrotation
          End Site
          {
            OFFSET 0.08 -0.047448 9.77979
          }
        }
      }
    }
  }
}
MOTION
Frames:	7
Frame Time:	0.0166667
-126.496 87.346 94.3538 -7.9622 9.8634 -128.753 -23.3041 -17.813 6.93157 8.96619 35.8176 0.796303 32.763 17.484 -7.34368 -44.5418 -39.7306 1.12651 -0.0230483 10.865 -3.15197 -6.01544 21.9241 -5.36511 17.2627 -8.93321 -5.64653 -3.18055e-015 0 -0 -42.5433 -7.47165 -77.8887 23.1231 11.5177 -130.7 1.40968 10.0161 24.6632 23.0591 -1.16799 -7.02596 25.1102 -45.3151 10.7527 -18.9572 -7.48353 68.0015 -0.792306 9.89888 -1.44904 27.2192 -14.6687 -5.99601 -2.20427 24.0298 6.72723 1.2898 43.3066 -0.865321 63.2386 -53.9732 32.9964 
-123.55 87.7568 93.753 -8.39394 8.25906 -126.148 -23.6668 -17.6381 5.68177 9.45469 36.5554 0.78868 28.1247 11.4006 -4.79209 -40.5447 -36.6901 2.10742 0.136677 10.4559 -2.42009 -7.54079 21.2435 -3.71604 17.6812 -8.05201 -5.75194 -3.97569e-015 3.18055e-015 3.18055e-015 -38.2906 -4.73531 -77.6242 25.9836 12.5905 -125.286 1.96027 10.1028 23.6936 17.3557 -0.0687702 -2.84787 24.0488 -34.9623 11.8036 -23.7673 -15.793 53.8342 2.89708 9.94281 -2.9627 26.5708 -14.322 -6.19567 -0.602995 16.7537 0.0980717 -11.3603 42.5528 4.78596 52.1141 -52.7557 20.9953 
-120.506 88.0056 93.2793 -8.75404 6.57339 -123.93 -24.0888 -18.6584 4.25071 9.3126 37.337 -0.205957 26.0056 10.5394 -4.23128 -41.0345 -36.8542 1.6303 0.366512 10.1327 -1.81827 -8.93137 20.7586 -2.50899 16.7694 -7.79106 -6.47297 -7.95139e-016 5.56597e-015 3.18055e-015 -34.9455 -2.03921 -79.4088 28.7359 15.3802 -119.578 2.18625 10.1323 23.0317 12.944 0.593553 1.08569 21.3049 -26.3987 12.7107 -25.5503 -19.3529 44.7241 5.53532 9.87672 -4.76129 26.1111 -13.4245 -6.02274 0.569744 8.82129 -5.1369 -23.1917 39.3674 9.46183 38.6934 -47.5768 8.48671 
-117.556 87.8859 92.9323 -9.16129 5.05698 -122.303 -24.5584 -20.6309 3.08496 8.69062 38.162 -2.50395 26.2232 15.3284 -5.34085 -47.2931 -40.5963 -1.3534 1.03169 9.87997 -1.29321 -9.96476 20.4982 -1.73216 14.8549 -8.17659 -7.47294 7.95139e-016 -1.98785e-015 -0 -33.2744 0.177068 -82.3357 30.5787 19.2578 -114.578 2.44207 10.1648 22.4352 10.247 0.903544 3.91856 17.1397 -21.1821 13.9925 -23.7638 -19.1807 44.7174 9.20262 9.45765 -9.48708 25.7219 -13.1 -5.02857 1.56489 3.84373 -8.84635 -31.6173 33.5985 11.4519 27.2571 -38.9462 -0.0891532 
-114.551 87.6442 92.4734 -9.56723 3.84056 -120.997 -24.5938 -22.6759 2.62168 7.89605 38.4151 -6.35889 26.7418 23.2312 -7.27126 -56.4553 -44.9031 -6.56195 1.57044 9.72726 -0.988374 -10.5439 20.471 -1.43597 12.6418 -9.09274 -8.38329 2.38542e-015 -7.95139e-016 3.18055e-015 -33.4326 1.95544 -85.3319 31.4813 23.1122 -110.68 2.81229 10.2125 21.8671 8.23864 1.03893 5.95817 13.5542 -21.0085 15.3952 -20.295 -15.3267 54.4481 15.1059 8.05348 -17.7041 25.5423 -13.7011 -3.05481 2.34202 2.87796 -11.3643 -35.8333 27.3517 11.0732 20.284 -30.9995 -3.59427 
-111.331 87.5437 91.7067 -10.0495 2.92455 -119.585 -23.922 -24.0952 2.81302 6.92928 38.0558 -10.9339 26.0808 30.9586 -8.84903 -64.2519 -47.4886 -11.7195 1.41701 9.81469 -1.06058 -10.7749 20.7189 -1.65922 10.9649 -10.3116 -9.02297 -1.59028e-015 -1.98785e-015 -3.18055e-015 -35.1235 3.3673 -87.5643 31.7678 26.101 -108.119 3.21936 10.2644 21.4086 6.33967 1.07799 7.65586 12.8073 -26.7308 16.9911 -17.2962 -6.75963 69.9728 20.0119 6.28508 -24.0738 25.6713 -13.5036 -0.494064 2.77577 2.5268 -12.107 -36.6883 23.857 10.2151 17.705 -27.2728 -3.85665 
-107.911 87.6855 90.5764 -10.6385 2.384 -117.767 -22.4574 -24.5557 3.18713 5.52464 37.189 -15.1581 24.3216 37.1063 -9.56414 -69.2062 -48.6166 -15.3274 0.592153 10.1605 -1.5076 -10.7553 21.2424 -2.33376 10.2902 -11.5162 -9.48755 1.19271e-015 3.97569e-016 -0 -37.8615 4.41419 -88.715 31.7625 27.879 -107.012 3.5287 10.3036 21.1399 4.72556 1.05887 9.00456 16.2285 -35.753 19.7363 -15.8271 4.4645 85.0928 19.5796 6.50881 -23.2753 26.1332 -12.6538 1.64633 2.82059 3.15359 -10.2148 -34.2663 23.189 9.28865 18.3006 -27.5367 -2.34368 
